M48
; DRILL file {KiCad (5.1.4-0-10_14)} date 2021 June 29, Tuesday 18:32:43
; FORMAT={-:-/ absolute / metric / decimal}
; #@! TF.CreationDate,2021-06-29T18:32:43+12:00
; #@! TF.GenerationSoftware,Kicad,Pcbnew,(5.1.4-0-10_14)
; #@! TF.FileFunction,Plated,1,2,PTH
FMAT,2
METRIC
T1C0.750
T2C0.800
T3C1.000
T4C1.100
T5C1.220
T6C1.420
T7C1.430
%
G90
G05
T1
X124.4Y-56.0
X124.4Y-63.62
X155.8Y-56.0
X155.8Y-63.62
X127.0Y-56.0
X127.0Y-63.62
X140.0Y-56.0
X140.0Y-63.62
X172.0Y-56.0
X172.0Y-63.62
X159.0Y-56.0
X159.0Y-63.62
X143.0Y-56.0
X143.0Y-63.62
X175.0Y-56.0
X175.0Y-63.62
T2
X199.5Y-69.2
X199.5Y-76.82
X203.2Y-58.78
X203.2Y-66.4
X199.7Y-58.78
X199.7Y-66.4
X203.1Y-69.2
X203.1Y-76.82
T3
X130.6Y-78.0
X133.1Y-78.0
X135.6Y-78.0
X146.6Y-77.8
X149.1Y-77.8
X151.6Y-77.8
X115.2Y-78.0
X117.7Y-78.0
X120.2Y-78.0
X163.0Y-77.6
X165.5Y-77.6
X168.0Y-77.6
T4
X169.0Y-137.0
X169.0Y-141.5
X175.5Y-137.0
X175.5Y-141.5
X131.0Y-107.0
X131.0Y-111.5
X137.5Y-107.0
X137.5Y-111.5
X150.0Y-137.0
X150.0Y-141.5
X113.2Y-96.5
X156.5Y-141.5
X150.0Y-92.0
X150.0Y-96.5
X156.5Y-92.0
X156.5Y-96.5
X156.5Y-137.0
X150.0Y-122.0
X150.0Y-126.5
X156.5Y-122.0
X156.5Y-126.5
X187.0Y-122.0
X187.0Y-126.5
X193.5Y-122.0
X193.5Y-126.5
X113.2Y-92.0
X119.7Y-92.0
X119.7Y-96.5
X187.0Y-107.0
X187.0Y-111.5
X193.5Y-107.0
X193.5Y-111.5
X131.0Y-122.0
X131.0Y-126.5
X137.5Y-122.0
X137.5Y-126.5
X131.0Y-92.0
X131.0Y-96.5
X169.0Y-107.0
X187.0Y-92.0
X187.0Y-96.5
X193.5Y-92.0
X193.5Y-96.5
X113.0Y-107.0
X113.0Y-111.5
X119.5Y-107.0
X119.5Y-111.5
X113.0Y-137.0
X113.0Y-141.5
X119.5Y-137.0
X119.5Y-141.5
X169.0Y-111.5
X175.5Y-107.0
X169.0Y-122.0
X169.0Y-126.5
X175.5Y-122.0
X175.5Y-126.5
X187.0Y-137.0
X187.0Y-141.5
X193.5Y-137.0
X193.5Y-141.5
X137.5Y-92.0
X137.5Y-96.5
X175.5Y-111.5
X131.0Y-137.0
X131.0Y-141.5
X137.5Y-137.0
X137.5Y-141.5
X181.18Y-51.63
X181.18Y-54.17
X181.18Y-56.71
X181.18Y-59.25
X181.18Y-61.79
X181.18Y-64.33
X181.18Y-66.87
X181.18Y-69.41
X181.18Y-71.95
X181.18Y-74.49
X181.18Y-77.03
X181.18Y-79.57
X196.42Y-51.63
X196.42Y-54.17
X196.42Y-56.71
X196.42Y-59.25
X196.42Y-61.79
X196.42Y-64.33
X196.42Y-66.87
X196.42Y-69.41
X196.42Y-71.95
X196.42Y-74.49
X196.42Y-77.03
X196.42Y-79.57
X169.0Y-92.0
X169.0Y-96.5
X175.5Y-92.0
X175.5Y-96.5
X150.0Y-107.0
X150.0Y-111.5
X156.5Y-107.0
X156.5Y-111.5
X113.0Y-122.0
X113.0Y-126.5
X119.5Y-122.0
X119.5Y-126.5
T5
X133.6Y-51.6
X118.0Y-51.6
X165.4Y-51.6
X149.4Y-51.6
T6
X133.6Y-54.7
X165.4Y-54.7
X118.0Y-54.7
X149.4Y-54.7
T7
X165.4Y-63.0
X149.4Y-63.0
X133.6Y-63.0
X118.0Y-63.0
T0
M30
