G04 #@! TF.GenerationSoftware,KiCad,Pcbnew,(5.1.4-0-10_14)*
G04 #@! TF.CreationDate,2021-06-29T18:32:42+12:00*
G04 #@! TF.ProjectId,recur_control,72656375-725f-4636-9f6e-74726f6c2e6b,rev?*
G04 #@! TF.SameCoordinates,Original*
G04 #@! TF.FileFunction,Legend,Bot*
G04 #@! TF.FilePolarity,Positive*
%FSLAX46Y46*%
G04 Gerber Fmt 4.6, Leading zero omitted, Abs format (unit mm)*
G04 Created by KiCad (PCBNEW (5.1.4-0-10_14)) date 2021-06-29 18:32:42*
%MOMM*%
%LPD*%
G04 APERTURE LIST*
%ADD10C,0.500000*%
%ADD11C,0.300000*%
%ADD12C,0.150000*%
G04 APERTURE END LIST*
D10*
X202800000Y-86390476D02*
X199752380Y-86390476D01*
X199371428Y-82390476D02*
X198609523Y-81819047D01*
X197847619Y-82390476D01*
X192704761Y-82009523D02*
X192323809Y-82009523D01*
X191942857Y-82200000D01*
X191752380Y-82390476D01*
X191561904Y-82771428D01*
X191371428Y-83533333D01*
X191371428Y-84485714D01*
X191561904Y-85247619D01*
X191752380Y-85628571D01*
X191942857Y-85819047D01*
X192323809Y-86009523D01*
X192704761Y-86009523D01*
X193085714Y-85819047D01*
X193276190Y-85628571D01*
X193466666Y-85247619D01*
X193657142Y-84485714D01*
X193657142Y-83533333D01*
X193466666Y-82771428D01*
X193276190Y-82390476D01*
X193085714Y-82200000D01*
X192704761Y-82009523D01*
X190038095Y-82009523D02*
X187371428Y-82009523D01*
X189085714Y-86009523D01*
D11*
X202185714Y-88878571D02*
X202185714Y-89878571D01*
X202828571Y-88878571D02*
X202828571Y-89664285D01*
X202757142Y-89807142D01*
X202614285Y-89878571D01*
X202400000Y-89878571D01*
X202257142Y-89807142D01*
X202185714Y-89735714D01*
X201471428Y-88878571D02*
X201471428Y-89878571D01*
X201471428Y-89021428D02*
X201400000Y-88950000D01*
X201257142Y-88878571D01*
X201042857Y-88878571D01*
X200900000Y-88950000D01*
X200828571Y-89092857D01*
X200828571Y-89878571D01*
X199471428Y-89878571D02*
X199471428Y-88378571D01*
X199471428Y-89807142D02*
X199614285Y-89878571D01*
X199900000Y-89878571D01*
X200042857Y-89807142D01*
X200114285Y-89735714D01*
X200185714Y-89592857D01*
X200185714Y-89164285D01*
X200114285Y-89021428D01*
X200042857Y-88950000D01*
X199900000Y-88878571D01*
X199614285Y-88878571D01*
X199471428Y-88950000D01*
X198185714Y-89807142D02*
X198328571Y-89878571D01*
X198614285Y-89878571D01*
X198757142Y-89807142D01*
X198828571Y-89664285D01*
X198828571Y-89092857D01*
X198757142Y-88950000D01*
X198614285Y-88878571D01*
X198328571Y-88878571D01*
X198185714Y-88950000D01*
X198114285Y-89092857D01*
X198114285Y-89235714D01*
X198828571Y-89378571D01*
X197471428Y-89878571D02*
X197471428Y-88878571D01*
X197471428Y-89164285D02*
X197400000Y-89021428D01*
X197328571Y-88950000D01*
X197185714Y-88878571D01*
X197042857Y-88878571D01*
X196614285Y-89807142D02*
X196471428Y-89878571D01*
X196185714Y-89878571D01*
X196042857Y-89807142D01*
X195971428Y-89664285D01*
X195971428Y-89592857D01*
X196042857Y-89450000D01*
X196185714Y-89378571D01*
X196400000Y-89378571D01*
X196542857Y-89307142D01*
X196614285Y-89164285D01*
X196614285Y-89092857D01*
X196542857Y-88950000D01*
X196400000Y-88878571D01*
X196185714Y-88878571D01*
X196042857Y-88950000D01*
X194685714Y-89807142D02*
X194828571Y-89878571D01*
X195114285Y-89878571D01*
X195257142Y-89807142D01*
X195328571Y-89735714D01*
X195400000Y-89592857D01*
X195400000Y-89164285D01*
X195328571Y-89021428D01*
X195257142Y-88950000D01*
X195114285Y-88878571D01*
X194828571Y-88878571D01*
X194685714Y-88950000D01*
X193828571Y-89878571D02*
X193971428Y-89807142D01*
X194042857Y-89735714D01*
X194114285Y-89592857D01*
X194114285Y-89164285D01*
X194042857Y-89021428D01*
X193971428Y-88950000D01*
X193828571Y-88878571D01*
X193614285Y-88878571D01*
X193471428Y-88950000D01*
X193400000Y-89021428D01*
X193328571Y-89164285D01*
X193328571Y-89592857D01*
X193400000Y-89735714D01*
X193471428Y-89807142D01*
X193614285Y-89878571D01*
X193828571Y-89878571D01*
X192685714Y-89878571D02*
X192685714Y-88878571D01*
X192685714Y-89164285D02*
X192614285Y-89021428D01*
X192542857Y-88950000D01*
X192400000Y-88878571D01*
X192257142Y-88878571D01*
X191185714Y-89807142D02*
X191328571Y-89878571D01*
X191614285Y-89878571D01*
X191757142Y-89807142D01*
X191828571Y-89664285D01*
X191828571Y-89092857D01*
X191757142Y-88950000D01*
X191614285Y-88878571D01*
X191328571Y-88878571D01*
X191185714Y-88950000D01*
X191114285Y-89092857D01*
X191114285Y-89235714D01*
X191828571Y-89378571D01*
X190542857Y-89807142D02*
X190400000Y-89878571D01*
X190114285Y-89878571D01*
X189971428Y-89807142D01*
X189900000Y-89664285D01*
X189900000Y-89592857D01*
X189971428Y-89450000D01*
X190114285Y-89378571D01*
X190328571Y-89378571D01*
X190471428Y-89307142D01*
X190542857Y-89164285D01*
X190542857Y-89092857D01*
X190471428Y-88950000D01*
X190328571Y-88878571D01*
X190114285Y-88878571D01*
X189971428Y-88950000D01*
X189257142Y-89735714D02*
X189185714Y-89807142D01*
X189257142Y-89878571D01*
X189328571Y-89807142D01*
X189257142Y-89735714D01*
X189257142Y-89878571D01*
X188614285Y-89807142D02*
X188471428Y-89878571D01*
X188185714Y-89878571D01*
X188042857Y-89807142D01*
X187971428Y-89664285D01*
X187971428Y-89592857D01*
X188042857Y-89450000D01*
X188185714Y-89378571D01*
X188400000Y-89378571D01*
X188542857Y-89307142D01*
X188614285Y-89164285D01*
X188614285Y-89092857D01*
X188542857Y-88950000D01*
X188400000Y-88878571D01*
X188185714Y-88878571D01*
X188042857Y-88950000D01*
X187328571Y-89878571D02*
X187328571Y-88378571D01*
X186685714Y-89878571D02*
X186685714Y-89092857D01*
X186757142Y-88950000D01*
X186900000Y-88878571D01*
X187114285Y-88878571D01*
X187257142Y-88950000D01*
X187328571Y-89021428D01*
X185757142Y-89878571D02*
X185900000Y-89807142D01*
X185971428Y-89735714D01*
X186042857Y-89592857D01*
X186042857Y-89164285D01*
X185971428Y-89021428D01*
X185900000Y-88950000D01*
X185757142Y-88878571D01*
X185542857Y-88878571D01*
X185400000Y-88950000D01*
X185328571Y-89021428D01*
X185257142Y-89164285D01*
X185257142Y-89592857D01*
X185328571Y-89735714D01*
X185400000Y-89807142D01*
X185542857Y-89878571D01*
X185757142Y-89878571D01*
X184614285Y-88878571D02*
X184614285Y-90378571D01*
X184614285Y-88950000D02*
X184471428Y-88878571D01*
X184185714Y-88878571D01*
X184042857Y-88950000D01*
X183971428Y-89021428D01*
X183900000Y-89164285D01*
X183900000Y-89592857D01*
X183971428Y-89735714D01*
X184042857Y-89807142D01*
X184185714Y-89878571D01*
X184471428Y-89878571D01*
X184614285Y-89807142D01*
D12*
X197690000Y-50360000D02*
X197690000Y-80840000D01*
X192610000Y-50360000D02*
X197690000Y-50360000D01*
X192610000Y-47820000D02*
X192610000Y-50360000D01*
X184990000Y-47820000D02*
X192610000Y-47820000D01*
X184990000Y-50360000D02*
X184990000Y-47820000D01*
X179910000Y-50360000D02*
X184990000Y-50360000D01*
X179910000Y-80840000D02*
X179910000Y-50360000D01*
X197690000Y-80840000D02*
X179910000Y-80840000D01*
M02*
