G04 #@! TF.GenerationSoftware,KiCad,Pcbnew,(5.1.4-0-10_14)*
G04 #@! TF.CreationDate,2021-06-29T18:32:42+12:00*
G04 #@! TF.ProjectId,recur_control,72656375-725f-4636-9f6e-74726f6c2e6b,rev?*
G04 #@! TF.SameCoordinates,Original*
G04 #@! TF.FileFunction,Legend,Top*
G04 #@! TF.FilePolarity,Positive*
%FSLAX46Y46*%
G04 Gerber Fmt 4.6, Leading zero omitted, Abs format (unit mm)*
G04 Created by KiCad (PCBNEW (5.1.4-0-10_14)) date 2021-06-29 18:32:42*
%MOMM*%
%LPD*%
G04 APERTURE LIST*
%ADD10C,0.200000*%
%ADD11C,0.450000*%
%ADD12C,0.250000*%
%ADD13C,0.120000*%
%ADD14C,0.150000*%
G04 APERTURE END LIST*
D10*
X163464285Y-147607142D02*
X163321428Y-147678571D01*
X163035714Y-147678571D01*
X162892857Y-147607142D01*
X162821428Y-147535714D01*
X162750000Y-147392857D01*
X162750000Y-146964285D01*
X162821428Y-146821428D01*
X162892857Y-146750000D01*
X163035714Y-146678571D01*
X163321428Y-146678571D01*
X163464285Y-146750000D01*
X163750000Y-147821428D02*
X164892857Y-147821428D01*
X165464285Y-147678571D02*
X165321428Y-147607142D01*
X165250000Y-147464285D01*
X165250000Y-146178571D01*
X165678571Y-147821428D02*
X166821428Y-147821428D01*
X167178571Y-147678571D02*
X167178571Y-146678571D01*
X167178571Y-146178571D02*
X167107142Y-146250000D01*
X167178571Y-146321428D01*
X167250000Y-146250000D01*
X167178571Y-146178571D01*
X167178571Y-146321428D01*
X167535714Y-147821428D02*
X168678571Y-147821428D01*
X169035714Y-147678571D02*
X169035714Y-146178571D01*
X169178571Y-147107142D02*
X169607142Y-147678571D01*
X169607142Y-146678571D02*
X169035714Y-147250000D01*
X169892857Y-147821428D02*
X171035714Y-147821428D01*
X171392857Y-147678571D02*
X171392857Y-146678571D01*
X171392857Y-146964285D02*
X171464285Y-146821428D01*
X171535714Y-146750000D01*
X171678571Y-146678571D01*
X171821428Y-146678571D01*
X173321428Y-146678571D02*
X173678571Y-147678571D01*
X174035714Y-146678571D01*
X174892857Y-146178571D02*
X175035714Y-146178571D01*
X175178571Y-146250000D01*
X175250000Y-146321428D01*
X175321428Y-146464285D01*
X175392857Y-146750000D01*
X175392857Y-147107142D01*
X175321428Y-147392857D01*
X175250000Y-147535714D01*
X175178571Y-147607142D01*
X175035714Y-147678571D01*
X174892857Y-147678571D01*
X174750000Y-147607142D01*
X174678571Y-147535714D01*
X174607142Y-147392857D01*
X174535714Y-147107142D01*
X174535714Y-146750000D01*
X174607142Y-146464285D01*
X174678571Y-146321428D01*
X174750000Y-146250000D01*
X174892857Y-146178571D01*
X175678571Y-147821428D02*
X176821428Y-147821428D01*
X177107142Y-146321428D02*
X177178571Y-146250000D01*
X177321428Y-146178571D01*
X177678571Y-146178571D01*
X177821428Y-146250000D01*
X177892857Y-146321428D01*
X177964285Y-146464285D01*
X177964285Y-146607142D01*
X177892857Y-146821428D01*
X177035714Y-147678571D01*
X177964285Y-147678571D01*
X180392857Y-147607142D02*
X180250000Y-147678571D01*
X179964285Y-147678571D01*
X179821428Y-147607142D01*
X179750000Y-147535714D01*
X179678571Y-147392857D01*
X179678571Y-146964285D01*
X179750000Y-146821428D01*
X179821428Y-146750000D01*
X179964285Y-146678571D01*
X180250000Y-146678571D01*
X180392857Y-146750000D01*
X180892857Y-146678571D02*
X181250000Y-147678571D01*
X181607142Y-146678571D02*
X181250000Y-147678571D01*
X181107142Y-148035714D01*
X181035714Y-148107142D01*
X180892857Y-148178571D01*
X182178571Y-147678571D02*
X182178571Y-146178571D01*
X182178571Y-146750000D02*
X182321428Y-146678571D01*
X182607142Y-146678571D01*
X182750000Y-146750000D01*
X182821428Y-146821428D01*
X182892857Y-146964285D01*
X182892857Y-147392857D01*
X182821428Y-147535714D01*
X182750000Y-147607142D01*
X182607142Y-147678571D01*
X182321428Y-147678571D01*
X182178571Y-147607142D01*
X184107142Y-147607142D02*
X183964285Y-147678571D01*
X183678571Y-147678571D01*
X183535714Y-147607142D01*
X183464285Y-147464285D01*
X183464285Y-146892857D01*
X183535714Y-146750000D01*
X183678571Y-146678571D01*
X183964285Y-146678571D01*
X184107142Y-146750000D01*
X184178571Y-146892857D01*
X184178571Y-147035714D01*
X183464285Y-147178571D01*
X184821428Y-147678571D02*
X184821428Y-146678571D01*
X184821428Y-146964285D02*
X184892857Y-146821428D01*
X184964285Y-146750000D01*
X185107142Y-146678571D01*
X185250000Y-146678571D01*
X185750000Y-147678571D02*
X185750000Y-146178571D01*
X185750000Y-146750000D02*
X185892857Y-146678571D01*
X186178571Y-146678571D01*
X186321428Y-146750000D01*
X186392857Y-146821428D01*
X186464285Y-146964285D01*
X186464285Y-147392857D01*
X186392857Y-147535714D01*
X186321428Y-147607142D01*
X186178571Y-147678571D01*
X185892857Y-147678571D01*
X185750000Y-147607142D01*
X187321428Y-147678571D02*
X187178571Y-147607142D01*
X187107142Y-147535714D01*
X187035714Y-147392857D01*
X187035714Y-146964285D01*
X187107142Y-146821428D01*
X187178571Y-146750000D01*
X187321428Y-146678571D01*
X187535714Y-146678571D01*
X187678571Y-146750000D01*
X187750000Y-146821428D01*
X187821428Y-146964285D01*
X187821428Y-147392857D01*
X187750000Y-147535714D01*
X187678571Y-147607142D01*
X187535714Y-147678571D01*
X187321428Y-147678571D01*
X188321428Y-146678571D02*
X188678571Y-147678571D01*
X189035714Y-146678571D02*
X188678571Y-147678571D01*
X188535714Y-148035714D01*
X188464285Y-148107142D01*
X188321428Y-148178571D01*
X190250000Y-146178571D02*
X189964285Y-146178571D01*
X189821428Y-146250000D01*
X189750000Y-146321428D01*
X189607142Y-146535714D01*
X189535714Y-146821428D01*
X189535714Y-147392857D01*
X189607142Y-147535714D01*
X189678571Y-147607142D01*
X189821428Y-147678571D01*
X190107142Y-147678571D01*
X190250000Y-147607142D01*
X190321428Y-147535714D01*
X190392857Y-147392857D01*
X190392857Y-147035714D01*
X190321428Y-146892857D01*
X190250000Y-146821428D01*
X190107142Y-146750000D01*
X189821428Y-146750000D01*
X189678571Y-146821428D01*
X189607142Y-146892857D01*
X189535714Y-147035714D01*
X191678571Y-146178571D02*
X191392857Y-146178571D01*
X191250000Y-146250000D01*
X191178571Y-146321428D01*
X191035714Y-146535714D01*
X190964285Y-146821428D01*
X190964285Y-147392857D01*
X191035714Y-147535714D01*
X191107142Y-147607142D01*
X191250000Y-147678571D01*
X191535714Y-147678571D01*
X191678571Y-147607142D01*
X191750000Y-147535714D01*
X191821428Y-147392857D01*
X191821428Y-147035714D01*
X191750000Y-146892857D01*
X191678571Y-146821428D01*
X191535714Y-146750000D01*
X191250000Y-146750000D01*
X191107142Y-146821428D01*
X191035714Y-146892857D01*
X190964285Y-147035714D01*
X193107142Y-146178571D02*
X192821428Y-146178571D01*
X192678571Y-146250000D01*
X192607142Y-146321428D01*
X192464285Y-146535714D01*
X192392857Y-146821428D01*
X192392857Y-147392857D01*
X192464285Y-147535714D01*
X192535714Y-147607142D01*
X192678571Y-147678571D01*
X192964285Y-147678571D01*
X193107142Y-147607142D01*
X193178571Y-147535714D01*
X193250000Y-147392857D01*
X193250000Y-147035714D01*
X193178571Y-146892857D01*
X193107142Y-146821428D01*
X192964285Y-146750000D01*
X192678571Y-146750000D01*
X192535714Y-146821428D01*
X192464285Y-146892857D01*
X192392857Y-147035714D01*
D11*
X189238095Y-134809523D02*
X190000000Y-134809523D01*
X190380952Y-134619047D01*
X190571428Y-134428571D01*
X190952380Y-133857142D01*
X191142857Y-133095238D01*
X191142857Y-131571428D01*
X190952380Y-131190476D01*
X190761904Y-131000000D01*
X190380952Y-130809523D01*
X189619047Y-130809523D01*
X189238095Y-131000000D01*
X189047619Y-131190476D01*
X188857142Y-131571428D01*
X188857142Y-132523809D01*
X189047619Y-132904761D01*
X189238095Y-133095238D01*
X189619047Y-133285714D01*
X190380952Y-133285714D01*
X190761904Y-133095238D01*
X190952380Y-132904761D01*
X191142857Y-132523809D01*
X171619047Y-132523809D02*
X171238095Y-132333333D01*
X171047619Y-132142857D01*
X170857142Y-131761904D01*
X170857142Y-131571428D01*
X171047619Y-131190476D01*
X171238095Y-131000000D01*
X171619047Y-130809523D01*
X172380952Y-130809523D01*
X172761904Y-131000000D01*
X172952380Y-131190476D01*
X173142857Y-131571428D01*
X173142857Y-131761904D01*
X172952380Y-132142857D01*
X172761904Y-132333333D01*
X172380952Y-132523809D01*
X171619047Y-132523809D01*
X171238095Y-132714285D01*
X171047619Y-132904761D01*
X170857142Y-133285714D01*
X170857142Y-134047619D01*
X171047619Y-134428571D01*
X171238095Y-134619047D01*
X171619047Y-134809523D01*
X172380952Y-134809523D01*
X172761904Y-134619047D01*
X172952380Y-134428571D01*
X173142857Y-134047619D01*
X173142857Y-133285714D01*
X172952380Y-132904761D01*
X172761904Y-132714285D01*
X172380952Y-132523809D01*
X151666666Y-130809523D02*
X154333333Y-130809523D01*
X152619047Y-134809523D01*
X134761904Y-130809523D02*
X134000000Y-130809523D01*
X133619047Y-131000000D01*
X133428571Y-131190476D01*
X133047619Y-131761904D01*
X132857142Y-132523809D01*
X132857142Y-134047619D01*
X133047619Y-134428571D01*
X133238095Y-134619047D01*
X133619047Y-134809523D01*
X134380952Y-134809523D01*
X134761904Y-134619047D01*
X134952380Y-134428571D01*
X135142857Y-134047619D01*
X135142857Y-133095238D01*
X134952380Y-132714285D01*
X134761904Y-132523809D01*
X134380952Y-132333333D01*
X133619047Y-132333333D01*
X133238095Y-132523809D01*
X133047619Y-132714285D01*
X132857142Y-133095238D01*
X116952380Y-130809523D02*
X115047619Y-130809523D01*
X114857142Y-132714285D01*
X115047619Y-132523809D01*
X115428571Y-132333333D01*
X116380952Y-132333333D01*
X116761904Y-132523809D01*
X116952380Y-132714285D01*
X117142857Y-133095238D01*
X117142857Y-134047619D01*
X116952380Y-134428571D01*
X116761904Y-134619047D01*
X116380952Y-134809523D01*
X115428571Y-134809523D01*
X115047619Y-134619047D01*
X114857142Y-134428571D01*
X190761904Y-117142857D02*
X190761904Y-119809523D01*
X189809523Y-115619047D02*
X188857142Y-118476190D01*
X191333333Y-118476190D01*
X170666666Y-115809523D02*
X173142857Y-115809523D01*
X171809523Y-117333333D01*
X172380952Y-117333333D01*
X172761904Y-117523809D01*
X172952380Y-117714285D01*
X173142857Y-118095238D01*
X173142857Y-119047619D01*
X172952380Y-119428571D01*
X172761904Y-119619047D01*
X172380952Y-119809523D01*
X171238095Y-119809523D01*
X170857142Y-119619047D01*
X170666666Y-119428571D01*
X151857142Y-116190476D02*
X152047619Y-116000000D01*
X152428571Y-115809523D01*
X153380952Y-115809523D01*
X153761904Y-116000000D01*
X153952380Y-116190476D01*
X154142857Y-116571428D01*
X154142857Y-116952380D01*
X153952380Y-117523809D01*
X151666666Y-119809523D01*
X154142857Y-119809523D01*
X135142857Y-119809523D02*
X132857142Y-119809523D01*
X134000000Y-119809523D02*
X134000000Y-115809523D01*
X133619047Y-116380952D01*
X133238095Y-116761904D01*
X132857142Y-116952380D01*
X115809523Y-115809523D02*
X116190476Y-115809523D01*
X116571428Y-116000000D01*
X116761904Y-116190476D01*
X116952380Y-116571428D01*
X117142857Y-117333333D01*
X117142857Y-118285714D01*
X116952380Y-119047619D01*
X116761904Y-119428571D01*
X116571428Y-119619047D01*
X116190476Y-119809523D01*
X115809523Y-119809523D01*
X115428571Y-119619047D01*
X115238095Y-119428571D01*
X115047619Y-119047619D01*
X114857142Y-118285714D01*
X114857142Y-117333333D01*
X115047619Y-116571428D01*
X115238095Y-116190476D01*
X115428571Y-116000000D01*
X115809523Y-115809523D01*
D12*
X189238095Y-101857142D02*
X188571428Y-101857142D01*
X188571428Y-102904761D02*
X188571428Y-100904761D01*
X189523809Y-100904761D01*
X190285714Y-102904761D02*
X190285714Y-100904761D01*
X191428571Y-102904761D01*
X191428571Y-100904761D01*
X168666666Y-102904761D02*
X168666666Y-100904761D01*
X169142857Y-100904761D01*
X169428571Y-101000000D01*
X169619047Y-101190476D01*
X169714285Y-101380952D01*
X169809523Y-101761904D01*
X169809523Y-102047619D01*
X169714285Y-102428571D01*
X169619047Y-102619047D01*
X169428571Y-102809523D01*
X169142857Y-102904761D01*
X168666666Y-102904761D01*
X170571428Y-102809523D02*
X170857142Y-102904761D01*
X171333333Y-102904761D01*
X171523809Y-102809523D01*
X171619047Y-102714285D01*
X171714285Y-102523809D01*
X171714285Y-102333333D01*
X171619047Y-102142857D01*
X171523809Y-102047619D01*
X171333333Y-101952380D01*
X170952380Y-101857142D01*
X170761904Y-101761904D01*
X170666666Y-101666666D01*
X170571428Y-101476190D01*
X170571428Y-101285714D01*
X170666666Y-101095238D01*
X170761904Y-101000000D01*
X170952380Y-100904761D01*
X171428571Y-100904761D01*
X171714285Y-101000000D01*
X172571428Y-102904761D02*
X172571428Y-100904761D01*
X173333333Y-100904761D01*
X173523809Y-101000000D01*
X173619047Y-101095238D01*
X173714285Y-101285714D01*
X173714285Y-101571428D01*
X173619047Y-101761904D01*
X173523809Y-101857142D01*
X173333333Y-101952380D01*
X172571428Y-101952380D01*
X174952380Y-101952380D02*
X174952380Y-102904761D01*
X174285714Y-100904761D02*
X174952380Y-101952380D01*
X175619047Y-100904761D01*
D11*
X152619047Y-100761904D02*
X153380952Y-100761904D01*
X154142857Y-101142857D01*
X154523809Y-101904761D01*
X154523809Y-102666666D01*
X154142857Y-103428571D01*
X153380952Y-103809523D01*
X152619047Y-103809523D01*
X151857142Y-103428571D01*
X151476190Y-102666666D01*
X151476190Y-101904761D01*
X151857142Y-101142857D01*
X152619047Y-100761904D01*
X133238095Y-105142857D02*
X134190476Y-105142857D01*
X134190476Y-99428571D01*
X133238095Y-99428571D01*
X116761904Y-105142857D02*
X115809523Y-105142857D01*
X115809523Y-99428571D01*
X116761904Y-99428571D01*
X170476190Y-87285714D02*
X173523809Y-87285714D01*
X172761904Y-88047619D02*
X173523809Y-87285714D01*
X172761904Y-86523809D01*
X151666666Y-86761904D02*
X151666666Y-89809523D01*
X151857142Y-89809523D02*
X151857142Y-86761904D01*
X152047619Y-86761904D02*
X152047619Y-89809523D01*
X152238095Y-89809523D02*
X152238095Y-86761904D01*
X152428571Y-86761904D02*
X152428571Y-89809523D01*
X152619047Y-89809523D02*
X152619047Y-86761904D01*
X152809523Y-86761904D02*
X152809523Y-89809523D01*
X153000000Y-89809523D02*
X153000000Y-86761904D01*
X153190476Y-86761904D02*
X153190476Y-89809523D01*
X153380952Y-89809523D02*
X153380952Y-86761904D01*
X153571428Y-86761904D02*
X153571428Y-89809523D01*
X153761904Y-89809523D02*
X153761904Y-86761904D01*
X153952380Y-86761904D02*
X153952380Y-89809523D01*
X154142857Y-89809523D02*
X154142857Y-86761904D01*
X154333333Y-86761904D02*
X154333333Y-89809523D01*
X151476190Y-86761904D02*
X154523809Y-86761904D01*
X154523809Y-89809523D01*
X151476190Y-89809523D01*
X151476190Y-86761904D01*
X132476190Y-87142857D02*
X135523809Y-88285714D01*
X132476190Y-89428571D01*
X117523809Y-87142857D02*
X114476190Y-88285714D01*
X117523809Y-89428571D01*
D13*
X125320000Y-58626000D02*
X123480000Y-58626000D01*
X125320000Y-58866000D02*
X123480000Y-58866000D01*
X125320000Y-58746000D02*
X123480000Y-58746000D01*
X124400000Y-62630000D02*
X124400000Y-61450000D01*
X124400000Y-56990000D02*
X124400000Y-58170000D01*
X125320000Y-61450000D02*
X125320000Y-58170000D01*
X123480000Y-61450000D02*
X125320000Y-61450000D01*
X123480000Y-58170000D02*
X123480000Y-61450000D01*
X125320000Y-58170000D02*
X123480000Y-58170000D01*
X140920000Y-58626000D02*
X139080000Y-58626000D01*
X140920000Y-58866000D02*
X139080000Y-58866000D01*
X140920000Y-58746000D02*
X139080000Y-58746000D01*
X140000000Y-62630000D02*
X140000000Y-61450000D01*
X140000000Y-56990000D02*
X140000000Y-58170000D01*
X140920000Y-61450000D02*
X140920000Y-58170000D01*
X139080000Y-61450000D02*
X140920000Y-61450000D01*
X139080000Y-58170000D02*
X139080000Y-61450000D01*
X140920000Y-58170000D02*
X139080000Y-58170000D01*
X156720000Y-58626000D02*
X154880000Y-58626000D01*
X156720000Y-58866000D02*
X154880000Y-58866000D01*
X156720000Y-58746000D02*
X154880000Y-58746000D01*
X155800000Y-62630000D02*
X155800000Y-61450000D01*
X155800000Y-56990000D02*
X155800000Y-58170000D01*
X156720000Y-61450000D02*
X156720000Y-58170000D01*
X154880000Y-61450000D02*
X156720000Y-61450000D01*
X154880000Y-58170000D02*
X154880000Y-61450000D01*
X156720000Y-58170000D02*
X154880000Y-58170000D01*
X172920000Y-58626000D02*
X171080000Y-58626000D01*
X172920000Y-58866000D02*
X171080000Y-58866000D01*
X172920000Y-58746000D02*
X171080000Y-58746000D01*
X172000000Y-62630000D02*
X172000000Y-61450000D01*
X172000000Y-56990000D02*
X172000000Y-58170000D01*
X172920000Y-61450000D02*
X172920000Y-58170000D01*
X171080000Y-61450000D02*
X172920000Y-61450000D01*
X171080000Y-58170000D02*
X171080000Y-61450000D01*
X172920000Y-58170000D02*
X171080000Y-58170000D01*
X127920000Y-58626000D02*
X126080000Y-58626000D01*
X127920000Y-58866000D02*
X126080000Y-58866000D01*
X127920000Y-58746000D02*
X126080000Y-58746000D01*
X127000000Y-62630000D02*
X127000000Y-61450000D01*
X127000000Y-56990000D02*
X127000000Y-58170000D01*
X127920000Y-61450000D02*
X127920000Y-58170000D01*
X126080000Y-61450000D02*
X127920000Y-61450000D01*
X126080000Y-58170000D02*
X126080000Y-61450000D01*
X127920000Y-58170000D02*
X126080000Y-58170000D01*
X143920000Y-58626000D02*
X142080000Y-58626000D01*
X143920000Y-58866000D02*
X142080000Y-58866000D01*
X143920000Y-58746000D02*
X142080000Y-58746000D01*
X143000000Y-62630000D02*
X143000000Y-61450000D01*
X143000000Y-56990000D02*
X143000000Y-58170000D01*
X143920000Y-61450000D02*
X143920000Y-58170000D01*
X142080000Y-61450000D02*
X143920000Y-61450000D01*
X142080000Y-58170000D02*
X142080000Y-61450000D01*
X143920000Y-58170000D02*
X142080000Y-58170000D01*
X159920000Y-58626000D02*
X158080000Y-58626000D01*
X159920000Y-58866000D02*
X158080000Y-58866000D01*
X159920000Y-58746000D02*
X158080000Y-58746000D01*
X159000000Y-62630000D02*
X159000000Y-61450000D01*
X159000000Y-56990000D02*
X159000000Y-58170000D01*
X159920000Y-61450000D02*
X159920000Y-58170000D01*
X158080000Y-61450000D02*
X159920000Y-61450000D01*
X158080000Y-58170000D02*
X158080000Y-61450000D01*
X159920000Y-58170000D02*
X158080000Y-58170000D01*
X175920000Y-58626000D02*
X174080000Y-58626000D01*
X175920000Y-58866000D02*
X174080000Y-58866000D01*
X175920000Y-58746000D02*
X174080000Y-58746000D01*
X175000000Y-62630000D02*
X175000000Y-61450000D01*
X175000000Y-56990000D02*
X175000000Y-58170000D01*
X175920000Y-61450000D02*
X175920000Y-58170000D01*
X174080000Y-61450000D02*
X175920000Y-61450000D01*
X174080000Y-58170000D02*
X174080000Y-61450000D01*
X175920000Y-58170000D02*
X174080000Y-58170000D01*
X116940000Y-50600000D02*
X117800000Y-50600000D01*
X116940000Y-50600000D02*
X116940000Y-51400000D01*
X119800000Y-58080000D02*
G75*
G03X119800000Y-58080000I-1800000J0D01*
G01*
X117650000Y-53580000D02*
X113500000Y-53580000D01*
X122500000Y-53580000D02*
X118350000Y-53580000D01*
X117500000Y-64080000D02*
X113500000Y-64080000D01*
X122500000Y-64080000D02*
X118500000Y-64080000D01*
X122500000Y-53580000D02*
X122500000Y-64080000D01*
X113500000Y-53580000D02*
X113500000Y-64080000D01*
X132540000Y-50600000D02*
X133400000Y-50600000D01*
X132540000Y-50600000D02*
X132540000Y-51400000D01*
X135400000Y-58080000D02*
G75*
G03X135400000Y-58080000I-1800000J0D01*
G01*
X133250000Y-53580000D02*
X129100000Y-53580000D01*
X138100000Y-53580000D02*
X133950000Y-53580000D01*
X133100000Y-64080000D02*
X129100000Y-64080000D01*
X138100000Y-64080000D02*
X134100000Y-64080000D01*
X138100000Y-53580000D02*
X138100000Y-64080000D01*
X129100000Y-53580000D02*
X129100000Y-64080000D01*
X148340000Y-50600000D02*
X149200000Y-50600000D01*
X148340000Y-50600000D02*
X148340000Y-51400000D01*
X151200000Y-58080000D02*
G75*
G03X151200000Y-58080000I-1800000J0D01*
G01*
X149050000Y-53580000D02*
X144900000Y-53580000D01*
X153900000Y-53580000D02*
X149750000Y-53580000D01*
X148900000Y-64080000D02*
X144900000Y-64080000D01*
X153900000Y-64080000D02*
X149900000Y-64080000D01*
X153900000Y-53580000D02*
X153900000Y-64080000D01*
X144900000Y-53580000D02*
X144900000Y-64080000D01*
X164340000Y-50600000D02*
X165200000Y-50600000D01*
X164340000Y-50600000D02*
X164340000Y-51400000D01*
X167200000Y-58080000D02*
G75*
G03X167200000Y-58080000I-1800000J0D01*
G01*
X165050000Y-53580000D02*
X160900000Y-53580000D01*
X169900000Y-53580000D02*
X165750000Y-53580000D01*
X164900000Y-64080000D02*
X160900000Y-64080000D01*
X169900000Y-64080000D02*
X165900000Y-64080000D01*
X169900000Y-53580000D02*
X169900000Y-64080000D01*
X160900000Y-53580000D02*
X160900000Y-64080000D01*
X111530000Y-65530000D02*
X123870000Y-65530000D01*
X121070000Y-77120000D02*
X123870000Y-77120000D01*
X118571000Y-77120000D02*
X119330000Y-77120000D01*
X116071000Y-77120000D02*
X116830000Y-77120000D01*
X111530000Y-77120000D02*
X114329000Y-77120000D01*
X123870000Y-68545000D02*
X123870000Y-65530000D01*
X123870000Y-77120000D02*
X123870000Y-72454000D01*
X111530000Y-68545000D02*
X111530000Y-65530000D01*
X111530000Y-77120000D02*
X111530000Y-72454000D01*
X126930000Y-65530000D02*
X139270000Y-65530000D01*
X136470000Y-77120000D02*
X139270000Y-77120000D01*
X133971000Y-77120000D02*
X134730000Y-77120000D01*
X131471000Y-77120000D02*
X132230000Y-77120000D01*
X126930000Y-77120000D02*
X129729000Y-77120000D01*
X139270000Y-68545000D02*
X139270000Y-65530000D01*
X139270000Y-77120000D02*
X139270000Y-72454000D01*
X126930000Y-68545000D02*
X126930000Y-65530000D01*
X126930000Y-77120000D02*
X126930000Y-72454000D01*
X142930000Y-65330000D02*
X155270000Y-65330000D01*
X152470000Y-76920000D02*
X155270000Y-76920000D01*
X149971000Y-76920000D02*
X150730000Y-76920000D01*
X147471000Y-76920000D02*
X148230000Y-76920000D01*
X142930000Y-76920000D02*
X145729000Y-76920000D01*
X155270000Y-68345000D02*
X155270000Y-65330000D01*
X155270000Y-76920000D02*
X155270000Y-72254000D01*
X142930000Y-68345000D02*
X142930000Y-65330000D01*
X142930000Y-76920000D02*
X142930000Y-72254000D01*
X159330000Y-65130000D02*
X171670000Y-65130000D01*
X168870000Y-76720000D02*
X171670000Y-76720000D01*
X166371000Y-76720000D02*
X167130000Y-76720000D01*
X163871000Y-76720000D02*
X164630000Y-76720000D01*
X159330000Y-76720000D02*
X162129000Y-76720000D01*
X171670000Y-68145000D02*
X171670000Y-65130000D01*
X171670000Y-76720000D02*
X171670000Y-72054000D01*
X159330000Y-68145000D02*
X159330000Y-65130000D01*
X159330000Y-76720000D02*
X159330000Y-72054000D01*
X119950000Y-95000000D02*
X119950000Y-93500000D01*
X118700000Y-91000000D02*
X114200000Y-91000000D01*
X112950000Y-93500000D02*
X112950000Y-95000000D01*
X114200000Y-97500000D02*
X118700000Y-97500000D01*
X137750000Y-95000000D02*
X137750000Y-93500000D01*
X136500000Y-91000000D02*
X132000000Y-91000000D01*
X130750000Y-93500000D02*
X130750000Y-95000000D01*
X132000000Y-97500000D02*
X136500000Y-97500000D01*
X156750000Y-95000000D02*
X156750000Y-93500000D01*
X155500000Y-91000000D02*
X151000000Y-91000000D01*
X149750000Y-93500000D02*
X149750000Y-95000000D01*
X151000000Y-97500000D02*
X155500000Y-97500000D01*
X175750000Y-95000000D02*
X175750000Y-93500000D01*
X174500000Y-91000000D02*
X170000000Y-91000000D01*
X168750000Y-93500000D02*
X168750000Y-95000000D01*
X170000000Y-97500000D02*
X174500000Y-97500000D01*
X193750000Y-95000000D02*
X193750000Y-93500000D01*
X192500000Y-91000000D02*
X188000000Y-91000000D01*
X186750000Y-93500000D02*
X186750000Y-95000000D01*
X188000000Y-97500000D02*
X192500000Y-97500000D01*
X119750000Y-110000000D02*
X119750000Y-108500000D01*
X118500000Y-106000000D02*
X114000000Y-106000000D01*
X112750000Y-108500000D02*
X112750000Y-110000000D01*
X114000000Y-112500000D02*
X118500000Y-112500000D01*
X137750000Y-110000000D02*
X137750000Y-108500000D01*
X136500000Y-106000000D02*
X132000000Y-106000000D01*
X130750000Y-108500000D02*
X130750000Y-110000000D01*
X132000000Y-112500000D02*
X136500000Y-112500000D01*
X156750000Y-110000000D02*
X156750000Y-108500000D01*
X155500000Y-106000000D02*
X151000000Y-106000000D01*
X149750000Y-108500000D02*
X149750000Y-110000000D01*
X151000000Y-112500000D02*
X155500000Y-112500000D01*
X175750000Y-110000000D02*
X175750000Y-108500000D01*
X174500000Y-106000000D02*
X170000000Y-106000000D01*
X168750000Y-108500000D02*
X168750000Y-110000000D01*
X170000000Y-112500000D02*
X174500000Y-112500000D01*
X193750000Y-110000000D02*
X193750000Y-108500000D01*
X192500000Y-106000000D02*
X188000000Y-106000000D01*
X186750000Y-108500000D02*
X186750000Y-110000000D01*
X188000000Y-112500000D02*
X192500000Y-112500000D01*
X119750000Y-125000000D02*
X119750000Y-123500000D01*
X118500000Y-121000000D02*
X114000000Y-121000000D01*
X112750000Y-123500000D02*
X112750000Y-125000000D01*
X114000000Y-127500000D02*
X118500000Y-127500000D01*
X137750000Y-125000000D02*
X137750000Y-123500000D01*
X136500000Y-121000000D02*
X132000000Y-121000000D01*
X130750000Y-123500000D02*
X130750000Y-125000000D01*
X132000000Y-127500000D02*
X136500000Y-127500000D01*
X156750000Y-125000000D02*
X156750000Y-123500000D01*
X155500000Y-121000000D02*
X151000000Y-121000000D01*
X149750000Y-123500000D02*
X149750000Y-125000000D01*
X151000000Y-127500000D02*
X155500000Y-127500000D01*
X175750000Y-125000000D02*
X175750000Y-123500000D01*
X174500000Y-121000000D02*
X170000000Y-121000000D01*
X168750000Y-123500000D02*
X168750000Y-125000000D01*
X170000000Y-127500000D02*
X174500000Y-127500000D01*
X193750000Y-125000000D02*
X193750000Y-123500000D01*
X192500000Y-121000000D02*
X188000000Y-121000000D01*
X186750000Y-123500000D02*
X186750000Y-125000000D01*
X188000000Y-127500000D02*
X192500000Y-127500000D01*
X119750000Y-140000000D02*
X119750000Y-138500000D01*
X118500000Y-136000000D02*
X114000000Y-136000000D01*
X112750000Y-138500000D02*
X112750000Y-140000000D01*
X114000000Y-142500000D02*
X118500000Y-142500000D01*
X137750000Y-140000000D02*
X137750000Y-138500000D01*
X136500000Y-136000000D02*
X132000000Y-136000000D01*
X130750000Y-138500000D02*
X130750000Y-140000000D01*
X132000000Y-142500000D02*
X136500000Y-142500000D01*
X156750000Y-140000000D02*
X156750000Y-138500000D01*
X155500000Y-136000000D02*
X151000000Y-136000000D01*
X149750000Y-138500000D02*
X149750000Y-140000000D01*
X151000000Y-142500000D02*
X155500000Y-142500000D01*
X175750000Y-140000000D02*
X175750000Y-138500000D01*
X174500000Y-136000000D02*
X170000000Y-136000000D01*
X168750000Y-138500000D02*
X168750000Y-140000000D01*
X170000000Y-142500000D02*
X174500000Y-142500000D01*
X193750000Y-140000000D02*
X193750000Y-138500000D01*
X192500000Y-136000000D02*
X188000000Y-136000000D01*
X186750000Y-138500000D02*
X186750000Y-140000000D01*
X188000000Y-142500000D02*
X192500000Y-142500000D01*
D14*
X197690000Y-80840000D02*
X179910000Y-80840000D01*
X197690000Y-50360000D02*
X197690000Y-80840000D01*
X192610000Y-50360000D02*
X197690000Y-50360000D01*
X192610000Y-47820000D02*
X192610000Y-50360000D01*
X184990000Y-47820000D02*
X192610000Y-47820000D01*
X184990000Y-50360000D02*
X184990000Y-47820000D01*
X179910000Y-50360000D02*
X184990000Y-50360000D01*
X179910000Y-50360000D02*
X179910000Y-80840000D01*
D13*
X201730000Y-76280000D02*
X202060000Y-76280000D01*
X201730000Y-69740000D02*
X201730000Y-76280000D01*
X202060000Y-69740000D02*
X201730000Y-69740000D01*
X204470000Y-76280000D02*
X204140000Y-76280000D01*
X204470000Y-69740000D02*
X204470000Y-76280000D01*
X204140000Y-69740000D02*
X204470000Y-69740000D01*
X200540000Y-69740000D02*
X200870000Y-69740000D01*
X200870000Y-69740000D02*
X200870000Y-76280000D01*
X200870000Y-76280000D02*
X200540000Y-76280000D01*
X198460000Y-69740000D02*
X198130000Y-69740000D01*
X198130000Y-69740000D02*
X198130000Y-76280000D01*
X198130000Y-76280000D02*
X198460000Y-76280000D01*
X201070000Y-59320000D02*
X200740000Y-59320000D01*
X201070000Y-65860000D02*
X201070000Y-59320000D01*
X200740000Y-65860000D02*
X201070000Y-65860000D01*
X198330000Y-59320000D02*
X198660000Y-59320000D01*
X198330000Y-65860000D02*
X198330000Y-59320000D01*
X198660000Y-65860000D02*
X198330000Y-65860000D01*
X202160000Y-65860000D02*
X201830000Y-65860000D01*
X201830000Y-65860000D02*
X201830000Y-59320000D01*
X201830000Y-59320000D02*
X202160000Y-59320000D01*
X204240000Y-65860000D02*
X204570000Y-65860000D01*
X204570000Y-65860000D02*
X204570000Y-59320000D01*
X204570000Y-59320000D02*
X204240000Y-59320000D01*
D14*
X125052380Y-60548095D02*
X124052380Y-60548095D01*
X124052380Y-60310000D01*
X124100000Y-60167142D01*
X124195238Y-60071904D01*
X124290476Y-60024285D01*
X124480952Y-59976666D01*
X124623809Y-59976666D01*
X124814285Y-60024285D01*
X124909523Y-60071904D01*
X125004761Y-60167142D01*
X125052380Y-60310000D01*
X125052380Y-60548095D01*
X125052380Y-59024285D02*
X125052380Y-59595714D01*
X125052380Y-59310000D02*
X124052380Y-59310000D01*
X124195238Y-59405238D01*
X124290476Y-59500476D01*
X124338095Y-59595714D01*
X126602380Y-56261904D02*
X125602380Y-56261904D01*
X126602380Y-55690476D02*
X126030952Y-56119047D01*
X125602380Y-55690476D02*
X126173809Y-56261904D01*
X140652380Y-60548095D02*
X139652380Y-60548095D01*
X139652380Y-60310000D01*
X139700000Y-60167142D01*
X139795238Y-60071904D01*
X139890476Y-60024285D01*
X140080952Y-59976666D01*
X140223809Y-59976666D01*
X140414285Y-60024285D01*
X140509523Y-60071904D01*
X140604761Y-60167142D01*
X140652380Y-60310000D01*
X140652380Y-60548095D01*
X139747619Y-59595714D02*
X139700000Y-59548095D01*
X139652380Y-59452857D01*
X139652380Y-59214761D01*
X139700000Y-59119523D01*
X139747619Y-59071904D01*
X139842857Y-59024285D01*
X139938095Y-59024285D01*
X140080952Y-59071904D01*
X140652380Y-59643333D01*
X140652380Y-59024285D01*
X142202380Y-56261904D02*
X141202380Y-56261904D01*
X142202380Y-55690476D02*
X141630952Y-56119047D01*
X141202380Y-55690476D02*
X141773809Y-56261904D01*
X156652380Y-60538095D02*
X155652380Y-60538095D01*
X155652380Y-60300000D01*
X155700000Y-60157142D01*
X155795238Y-60061904D01*
X155890476Y-60014285D01*
X156080952Y-59966666D01*
X156223809Y-59966666D01*
X156414285Y-60014285D01*
X156509523Y-60061904D01*
X156604761Y-60157142D01*
X156652380Y-60300000D01*
X156652380Y-60538095D01*
X155652380Y-59633333D02*
X155652380Y-59014285D01*
X156033333Y-59347619D01*
X156033333Y-59204761D01*
X156080952Y-59109523D01*
X156128571Y-59061904D01*
X156223809Y-59014285D01*
X156461904Y-59014285D01*
X156557142Y-59061904D01*
X156604761Y-59109523D01*
X156652380Y-59204761D01*
X156652380Y-59490476D01*
X156604761Y-59585714D01*
X156557142Y-59633333D01*
X158002380Y-56261904D02*
X157002380Y-56261904D01*
X158002380Y-55690476D02*
X157430952Y-56119047D01*
X157002380Y-55690476D02*
X157573809Y-56261904D01*
X172852380Y-60538095D02*
X171852380Y-60538095D01*
X171852380Y-60300000D01*
X171900000Y-60157142D01*
X171995238Y-60061904D01*
X172090476Y-60014285D01*
X172280952Y-59966666D01*
X172423809Y-59966666D01*
X172614285Y-60014285D01*
X172709523Y-60061904D01*
X172804761Y-60157142D01*
X172852380Y-60300000D01*
X172852380Y-60538095D01*
X172185714Y-59109523D02*
X172852380Y-59109523D01*
X171804761Y-59347619D02*
X172519047Y-59585714D01*
X172519047Y-58966666D01*
X174202380Y-56261904D02*
X173202380Y-56261904D01*
X174202380Y-55690476D02*
X173630952Y-56119047D01*
X173202380Y-55690476D02*
X173773809Y-56261904D01*
X127452380Y-60548095D02*
X126452380Y-60548095D01*
X126452380Y-60310000D01*
X126500000Y-60167142D01*
X126595238Y-60071904D01*
X126690476Y-60024285D01*
X126880952Y-59976666D01*
X127023809Y-59976666D01*
X127214285Y-60024285D01*
X127309523Y-60071904D01*
X127404761Y-60167142D01*
X127452380Y-60310000D01*
X127452380Y-60548095D01*
X126452380Y-59071904D02*
X126452380Y-59548095D01*
X126928571Y-59595714D01*
X126880952Y-59548095D01*
X126833333Y-59452857D01*
X126833333Y-59214761D01*
X126880952Y-59119523D01*
X126928571Y-59071904D01*
X127023809Y-59024285D01*
X127261904Y-59024285D01*
X127357142Y-59071904D01*
X127404761Y-59119523D01*
X127452380Y-59214761D01*
X127452380Y-59452857D01*
X127404761Y-59548095D01*
X127357142Y-59595714D01*
X143652380Y-60548095D02*
X142652380Y-60548095D01*
X142652380Y-60310000D01*
X142700000Y-60167142D01*
X142795238Y-60071904D01*
X142890476Y-60024285D01*
X143080952Y-59976666D01*
X143223809Y-59976666D01*
X143414285Y-60024285D01*
X143509523Y-60071904D01*
X143604761Y-60167142D01*
X143652380Y-60310000D01*
X143652380Y-60548095D01*
X142652380Y-59119523D02*
X142652380Y-59310000D01*
X142700000Y-59405238D01*
X142747619Y-59452857D01*
X142890476Y-59548095D01*
X143080952Y-59595714D01*
X143461904Y-59595714D01*
X143557142Y-59548095D01*
X143604761Y-59500476D01*
X143652380Y-59405238D01*
X143652380Y-59214761D01*
X143604761Y-59119523D01*
X143557142Y-59071904D01*
X143461904Y-59024285D01*
X143223809Y-59024285D01*
X143128571Y-59071904D01*
X143080952Y-59119523D01*
X143033333Y-59214761D01*
X143033333Y-59405238D01*
X143080952Y-59500476D01*
X143128571Y-59548095D01*
X143223809Y-59595714D01*
X159852380Y-60538095D02*
X158852380Y-60538095D01*
X158852380Y-60300000D01*
X158900000Y-60157142D01*
X158995238Y-60061904D01*
X159090476Y-60014285D01*
X159280952Y-59966666D01*
X159423809Y-59966666D01*
X159614285Y-60014285D01*
X159709523Y-60061904D01*
X159804761Y-60157142D01*
X159852380Y-60300000D01*
X159852380Y-60538095D01*
X158852380Y-59633333D02*
X158852380Y-58966666D01*
X159852380Y-59395238D01*
X175852380Y-60548095D02*
X174852380Y-60548095D01*
X174852380Y-60310000D01*
X174900000Y-60167142D01*
X174995238Y-60071904D01*
X175090476Y-60024285D01*
X175280952Y-59976666D01*
X175423809Y-59976666D01*
X175614285Y-60024285D01*
X175709523Y-60071904D01*
X175804761Y-60167142D01*
X175852380Y-60310000D01*
X175852380Y-60548095D01*
X175280952Y-59405238D02*
X175233333Y-59500476D01*
X175185714Y-59548095D01*
X175090476Y-59595714D01*
X175042857Y-59595714D01*
X174947619Y-59548095D01*
X174900000Y-59500476D01*
X174852380Y-59405238D01*
X174852380Y-59214761D01*
X174900000Y-59119523D01*
X174947619Y-59071904D01*
X175042857Y-59024285D01*
X175090476Y-59024285D01*
X175185714Y-59071904D01*
X175233333Y-59119523D01*
X175280952Y-59214761D01*
X175280952Y-59405238D01*
X175328571Y-59500476D01*
X175376190Y-59548095D01*
X175471428Y-59595714D01*
X175661904Y-59595714D01*
X175757142Y-59548095D01*
X175804761Y-59500476D01*
X175852380Y-59405238D01*
X175852380Y-59214761D01*
X175804761Y-59119523D01*
X175757142Y-59071904D01*
X175661904Y-59024285D01*
X175471428Y-59024285D01*
X175376190Y-59071904D01*
X175328571Y-59119523D01*
X175280952Y-59214761D01*
X113636666Y-52132380D02*
X113636666Y-52846666D01*
X113589047Y-52989523D01*
X113493809Y-53084761D01*
X113350952Y-53132380D01*
X113255714Y-53132380D01*
X114636666Y-53132380D02*
X114065238Y-53132380D01*
X114350952Y-53132380D02*
X114350952Y-52132380D01*
X114255714Y-52275238D01*
X114160476Y-52370476D01*
X114065238Y-52418095D01*
X129236666Y-52132380D02*
X129236666Y-52846666D01*
X129189047Y-52989523D01*
X129093809Y-53084761D01*
X128950952Y-53132380D01*
X128855714Y-53132380D01*
X129665238Y-52227619D02*
X129712857Y-52180000D01*
X129808095Y-52132380D01*
X130046190Y-52132380D01*
X130141428Y-52180000D01*
X130189047Y-52227619D01*
X130236666Y-52322857D01*
X130236666Y-52418095D01*
X130189047Y-52560952D01*
X129617619Y-53132380D01*
X130236666Y-53132380D01*
X145036666Y-52132380D02*
X145036666Y-52846666D01*
X144989047Y-52989523D01*
X144893809Y-53084761D01*
X144750952Y-53132380D01*
X144655714Y-53132380D01*
X145417619Y-52132380D02*
X146036666Y-52132380D01*
X145703333Y-52513333D01*
X145846190Y-52513333D01*
X145941428Y-52560952D01*
X145989047Y-52608571D01*
X146036666Y-52703809D01*
X146036666Y-52941904D01*
X145989047Y-53037142D01*
X145941428Y-53084761D01*
X145846190Y-53132380D01*
X145560476Y-53132380D01*
X145465238Y-53084761D01*
X145417619Y-53037142D01*
X161036666Y-52132380D02*
X161036666Y-52846666D01*
X160989047Y-52989523D01*
X160893809Y-53084761D01*
X160750952Y-53132380D01*
X160655714Y-53132380D01*
X161941428Y-52465714D02*
X161941428Y-53132380D01*
X161703333Y-52084761D02*
X161465238Y-52799047D01*
X162084285Y-52799047D01*
X110152380Y-72870238D02*
X109676190Y-73203571D01*
X110152380Y-73441666D02*
X109152380Y-73441666D01*
X109152380Y-73060714D01*
X109200000Y-72965476D01*
X109247619Y-72917857D01*
X109342857Y-72870238D01*
X109485714Y-72870238D01*
X109580952Y-72917857D01*
X109628571Y-72965476D01*
X109676190Y-73060714D01*
X109676190Y-73441666D01*
X109152380Y-72584523D02*
X110152380Y-72251190D01*
X109152380Y-71917857D01*
X110152380Y-71060714D02*
X110152380Y-71632142D01*
X110152380Y-71346428D02*
X109152380Y-71346428D01*
X109295238Y-71441666D01*
X109390476Y-71536904D01*
X109438095Y-71632142D01*
X125552380Y-72870238D02*
X125076190Y-73203571D01*
X125552380Y-73441666D02*
X124552380Y-73441666D01*
X124552380Y-73060714D01*
X124600000Y-72965476D01*
X124647619Y-72917857D01*
X124742857Y-72870238D01*
X124885714Y-72870238D01*
X124980952Y-72917857D01*
X125028571Y-72965476D01*
X125076190Y-73060714D01*
X125076190Y-73441666D01*
X124552380Y-72584523D02*
X125552380Y-72251190D01*
X124552380Y-71917857D01*
X124647619Y-71632142D02*
X124600000Y-71584523D01*
X124552380Y-71489285D01*
X124552380Y-71251190D01*
X124600000Y-71155952D01*
X124647619Y-71108333D01*
X124742857Y-71060714D01*
X124838095Y-71060714D01*
X124980952Y-71108333D01*
X125552380Y-71679761D01*
X125552380Y-71060714D01*
X141552380Y-72670238D02*
X141076190Y-73003571D01*
X141552380Y-73241666D02*
X140552380Y-73241666D01*
X140552380Y-72860714D01*
X140600000Y-72765476D01*
X140647619Y-72717857D01*
X140742857Y-72670238D01*
X140885714Y-72670238D01*
X140980952Y-72717857D01*
X141028571Y-72765476D01*
X141076190Y-72860714D01*
X141076190Y-73241666D01*
X140552380Y-72384523D02*
X141552380Y-72051190D01*
X140552380Y-71717857D01*
X140552380Y-71479761D02*
X140552380Y-70860714D01*
X140933333Y-71194047D01*
X140933333Y-71051190D01*
X140980952Y-70955952D01*
X141028571Y-70908333D01*
X141123809Y-70860714D01*
X141361904Y-70860714D01*
X141457142Y-70908333D01*
X141504761Y-70955952D01*
X141552380Y-71051190D01*
X141552380Y-71336904D01*
X141504761Y-71432142D01*
X141457142Y-71479761D01*
X157952380Y-72470238D02*
X157476190Y-72803571D01*
X157952380Y-73041666D02*
X156952380Y-73041666D01*
X156952380Y-72660714D01*
X157000000Y-72565476D01*
X157047619Y-72517857D01*
X157142857Y-72470238D01*
X157285714Y-72470238D01*
X157380952Y-72517857D01*
X157428571Y-72565476D01*
X157476190Y-72660714D01*
X157476190Y-73041666D01*
X156952380Y-72184523D02*
X157952380Y-71851190D01*
X156952380Y-71517857D01*
X157285714Y-70755952D02*
X157952380Y-70755952D01*
X156904761Y-70994047D02*
X157619047Y-71232142D01*
X157619047Y-70613095D01*
X115116666Y-94404761D02*
X115259523Y-94452380D01*
X115497619Y-94452380D01*
X115592857Y-94404761D01*
X115640476Y-94357142D01*
X115688095Y-94261904D01*
X115688095Y-94166666D01*
X115640476Y-94071428D01*
X115592857Y-94023809D01*
X115497619Y-93976190D01*
X115307142Y-93928571D01*
X115211904Y-93880952D01*
X115164285Y-93833333D01*
X115116666Y-93738095D01*
X115116666Y-93642857D01*
X115164285Y-93547619D01*
X115211904Y-93500000D01*
X115307142Y-93452380D01*
X115545238Y-93452380D01*
X115688095Y-93500000D01*
X116021428Y-93452380D02*
X116259523Y-94452380D01*
X116450000Y-93738095D01*
X116640476Y-94452380D01*
X116878571Y-93452380D01*
X117783333Y-94452380D02*
X117211904Y-94452380D01*
X117497619Y-94452380D02*
X117497619Y-93452380D01*
X117402380Y-93595238D01*
X117307142Y-93690476D01*
X117211904Y-93738095D01*
X132916666Y-94404761D02*
X133059523Y-94452380D01*
X133297619Y-94452380D01*
X133392857Y-94404761D01*
X133440476Y-94357142D01*
X133488095Y-94261904D01*
X133488095Y-94166666D01*
X133440476Y-94071428D01*
X133392857Y-94023809D01*
X133297619Y-93976190D01*
X133107142Y-93928571D01*
X133011904Y-93880952D01*
X132964285Y-93833333D01*
X132916666Y-93738095D01*
X132916666Y-93642857D01*
X132964285Y-93547619D01*
X133011904Y-93500000D01*
X133107142Y-93452380D01*
X133345238Y-93452380D01*
X133488095Y-93500000D01*
X133821428Y-93452380D02*
X134059523Y-94452380D01*
X134250000Y-93738095D01*
X134440476Y-94452380D01*
X134678571Y-93452380D01*
X135011904Y-93547619D02*
X135059523Y-93500000D01*
X135154761Y-93452380D01*
X135392857Y-93452380D01*
X135488095Y-93500000D01*
X135535714Y-93547619D01*
X135583333Y-93642857D01*
X135583333Y-93738095D01*
X135535714Y-93880952D01*
X134964285Y-94452380D01*
X135583333Y-94452380D01*
X151916666Y-94404761D02*
X152059523Y-94452380D01*
X152297619Y-94452380D01*
X152392857Y-94404761D01*
X152440476Y-94357142D01*
X152488095Y-94261904D01*
X152488095Y-94166666D01*
X152440476Y-94071428D01*
X152392857Y-94023809D01*
X152297619Y-93976190D01*
X152107142Y-93928571D01*
X152011904Y-93880952D01*
X151964285Y-93833333D01*
X151916666Y-93738095D01*
X151916666Y-93642857D01*
X151964285Y-93547619D01*
X152011904Y-93500000D01*
X152107142Y-93452380D01*
X152345238Y-93452380D01*
X152488095Y-93500000D01*
X152821428Y-93452380D02*
X153059523Y-94452380D01*
X153250000Y-93738095D01*
X153440476Y-94452380D01*
X153678571Y-93452380D01*
X153964285Y-93452380D02*
X154583333Y-93452380D01*
X154250000Y-93833333D01*
X154392857Y-93833333D01*
X154488095Y-93880952D01*
X154535714Y-93928571D01*
X154583333Y-94023809D01*
X154583333Y-94261904D01*
X154535714Y-94357142D01*
X154488095Y-94404761D01*
X154392857Y-94452380D01*
X154107142Y-94452380D01*
X154011904Y-94404761D01*
X153964285Y-94357142D01*
X170916666Y-94404761D02*
X171059523Y-94452380D01*
X171297619Y-94452380D01*
X171392857Y-94404761D01*
X171440476Y-94357142D01*
X171488095Y-94261904D01*
X171488095Y-94166666D01*
X171440476Y-94071428D01*
X171392857Y-94023809D01*
X171297619Y-93976190D01*
X171107142Y-93928571D01*
X171011904Y-93880952D01*
X170964285Y-93833333D01*
X170916666Y-93738095D01*
X170916666Y-93642857D01*
X170964285Y-93547619D01*
X171011904Y-93500000D01*
X171107142Y-93452380D01*
X171345238Y-93452380D01*
X171488095Y-93500000D01*
X171821428Y-93452380D02*
X172059523Y-94452380D01*
X172250000Y-93738095D01*
X172440476Y-94452380D01*
X172678571Y-93452380D01*
X173488095Y-93785714D02*
X173488095Y-94452380D01*
X173250000Y-93404761D02*
X173011904Y-94119047D01*
X173630952Y-94119047D01*
X188916666Y-94404761D02*
X189059523Y-94452380D01*
X189297619Y-94452380D01*
X189392857Y-94404761D01*
X189440476Y-94357142D01*
X189488095Y-94261904D01*
X189488095Y-94166666D01*
X189440476Y-94071428D01*
X189392857Y-94023809D01*
X189297619Y-93976190D01*
X189107142Y-93928571D01*
X189011904Y-93880952D01*
X188964285Y-93833333D01*
X188916666Y-93738095D01*
X188916666Y-93642857D01*
X188964285Y-93547619D01*
X189011904Y-93500000D01*
X189107142Y-93452380D01*
X189345238Y-93452380D01*
X189488095Y-93500000D01*
X189821428Y-93452380D02*
X190059523Y-94452380D01*
X190250000Y-93738095D01*
X190440476Y-94452380D01*
X190678571Y-93452380D01*
X191535714Y-93452380D02*
X191059523Y-93452380D01*
X191011904Y-93928571D01*
X191059523Y-93880952D01*
X191154761Y-93833333D01*
X191392857Y-93833333D01*
X191488095Y-93880952D01*
X191535714Y-93928571D01*
X191583333Y-94023809D01*
X191583333Y-94261904D01*
X191535714Y-94357142D01*
X191488095Y-94404761D01*
X191392857Y-94452380D01*
X191154761Y-94452380D01*
X191059523Y-94404761D01*
X191011904Y-94357142D01*
X114916666Y-109404761D02*
X115059523Y-109452380D01*
X115297619Y-109452380D01*
X115392857Y-109404761D01*
X115440476Y-109357142D01*
X115488095Y-109261904D01*
X115488095Y-109166666D01*
X115440476Y-109071428D01*
X115392857Y-109023809D01*
X115297619Y-108976190D01*
X115107142Y-108928571D01*
X115011904Y-108880952D01*
X114964285Y-108833333D01*
X114916666Y-108738095D01*
X114916666Y-108642857D01*
X114964285Y-108547619D01*
X115011904Y-108500000D01*
X115107142Y-108452380D01*
X115345238Y-108452380D01*
X115488095Y-108500000D01*
X115821428Y-108452380D02*
X116059523Y-109452380D01*
X116250000Y-108738095D01*
X116440476Y-109452380D01*
X116678571Y-108452380D01*
X117488095Y-108452380D02*
X117297619Y-108452380D01*
X117202380Y-108500000D01*
X117154761Y-108547619D01*
X117059523Y-108690476D01*
X117011904Y-108880952D01*
X117011904Y-109261904D01*
X117059523Y-109357142D01*
X117107142Y-109404761D01*
X117202380Y-109452380D01*
X117392857Y-109452380D01*
X117488095Y-109404761D01*
X117535714Y-109357142D01*
X117583333Y-109261904D01*
X117583333Y-109023809D01*
X117535714Y-108928571D01*
X117488095Y-108880952D01*
X117392857Y-108833333D01*
X117202380Y-108833333D01*
X117107142Y-108880952D01*
X117059523Y-108928571D01*
X117011904Y-109023809D01*
X132916666Y-109404761D02*
X133059523Y-109452380D01*
X133297619Y-109452380D01*
X133392857Y-109404761D01*
X133440476Y-109357142D01*
X133488095Y-109261904D01*
X133488095Y-109166666D01*
X133440476Y-109071428D01*
X133392857Y-109023809D01*
X133297619Y-108976190D01*
X133107142Y-108928571D01*
X133011904Y-108880952D01*
X132964285Y-108833333D01*
X132916666Y-108738095D01*
X132916666Y-108642857D01*
X132964285Y-108547619D01*
X133011904Y-108500000D01*
X133107142Y-108452380D01*
X133345238Y-108452380D01*
X133488095Y-108500000D01*
X133821428Y-108452380D02*
X134059523Y-109452380D01*
X134250000Y-108738095D01*
X134440476Y-109452380D01*
X134678571Y-108452380D01*
X134964285Y-108452380D02*
X135630952Y-108452380D01*
X135202380Y-109452380D01*
X151916666Y-109404761D02*
X152059523Y-109452380D01*
X152297619Y-109452380D01*
X152392857Y-109404761D01*
X152440476Y-109357142D01*
X152488095Y-109261904D01*
X152488095Y-109166666D01*
X152440476Y-109071428D01*
X152392857Y-109023809D01*
X152297619Y-108976190D01*
X152107142Y-108928571D01*
X152011904Y-108880952D01*
X151964285Y-108833333D01*
X151916666Y-108738095D01*
X151916666Y-108642857D01*
X151964285Y-108547619D01*
X152011904Y-108500000D01*
X152107142Y-108452380D01*
X152345238Y-108452380D01*
X152488095Y-108500000D01*
X152821428Y-108452380D02*
X153059523Y-109452380D01*
X153250000Y-108738095D01*
X153440476Y-109452380D01*
X153678571Y-108452380D01*
X154202380Y-108880952D02*
X154107142Y-108833333D01*
X154059523Y-108785714D01*
X154011904Y-108690476D01*
X154011904Y-108642857D01*
X154059523Y-108547619D01*
X154107142Y-108500000D01*
X154202380Y-108452380D01*
X154392857Y-108452380D01*
X154488095Y-108500000D01*
X154535714Y-108547619D01*
X154583333Y-108642857D01*
X154583333Y-108690476D01*
X154535714Y-108785714D01*
X154488095Y-108833333D01*
X154392857Y-108880952D01*
X154202380Y-108880952D01*
X154107142Y-108928571D01*
X154059523Y-108976190D01*
X154011904Y-109071428D01*
X154011904Y-109261904D01*
X154059523Y-109357142D01*
X154107142Y-109404761D01*
X154202380Y-109452380D01*
X154392857Y-109452380D01*
X154488095Y-109404761D01*
X154535714Y-109357142D01*
X154583333Y-109261904D01*
X154583333Y-109071428D01*
X154535714Y-108976190D01*
X154488095Y-108928571D01*
X154392857Y-108880952D01*
X170916666Y-109404761D02*
X171059523Y-109452380D01*
X171297619Y-109452380D01*
X171392857Y-109404761D01*
X171440476Y-109357142D01*
X171488095Y-109261904D01*
X171488095Y-109166666D01*
X171440476Y-109071428D01*
X171392857Y-109023809D01*
X171297619Y-108976190D01*
X171107142Y-108928571D01*
X171011904Y-108880952D01*
X170964285Y-108833333D01*
X170916666Y-108738095D01*
X170916666Y-108642857D01*
X170964285Y-108547619D01*
X171011904Y-108500000D01*
X171107142Y-108452380D01*
X171345238Y-108452380D01*
X171488095Y-108500000D01*
X171821428Y-108452380D02*
X172059523Y-109452380D01*
X172250000Y-108738095D01*
X172440476Y-109452380D01*
X172678571Y-108452380D01*
X173107142Y-109452380D02*
X173297619Y-109452380D01*
X173392857Y-109404761D01*
X173440476Y-109357142D01*
X173535714Y-109214285D01*
X173583333Y-109023809D01*
X173583333Y-108642857D01*
X173535714Y-108547619D01*
X173488095Y-108500000D01*
X173392857Y-108452380D01*
X173202380Y-108452380D01*
X173107142Y-108500000D01*
X173059523Y-108547619D01*
X173011904Y-108642857D01*
X173011904Y-108880952D01*
X173059523Y-108976190D01*
X173107142Y-109023809D01*
X173202380Y-109071428D01*
X173392857Y-109071428D01*
X173488095Y-109023809D01*
X173535714Y-108976190D01*
X173583333Y-108880952D01*
X188440476Y-109404761D02*
X188583333Y-109452380D01*
X188821428Y-109452380D01*
X188916666Y-109404761D01*
X188964285Y-109357142D01*
X189011904Y-109261904D01*
X189011904Y-109166666D01*
X188964285Y-109071428D01*
X188916666Y-109023809D01*
X188821428Y-108976190D01*
X188630952Y-108928571D01*
X188535714Y-108880952D01*
X188488095Y-108833333D01*
X188440476Y-108738095D01*
X188440476Y-108642857D01*
X188488095Y-108547619D01*
X188535714Y-108500000D01*
X188630952Y-108452380D01*
X188869047Y-108452380D01*
X189011904Y-108500000D01*
X189345238Y-108452380D02*
X189583333Y-109452380D01*
X189773809Y-108738095D01*
X189964285Y-109452380D01*
X190202380Y-108452380D01*
X191107142Y-109452380D02*
X190535714Y-109452380D01*
X190821428Y-109452380D02*
X190821428Y-108452380D01*
X190726190Y-108595238D01*
X190630952Y-108690476D01*
X190535714Y-108738095D01*
X191726190Y-108452380D02*
X191821428Y-108452380D01*
X191916666Y-108500000D01*
X191964285Y-108547619D01*
X192011904Y-108642857D01*
X192059523Y-108833333D01*
X192059523Y-109071428D01*
X192011904Y-109261904D01*
X191964285Y-109357142D01*
X191916666Y-109404761D01*
X191821428Y-109452380D01*
X191726190Y-109452380D01*
X191630952Y-109404761D01*
X191583333Y-109357142D01*
X191535714Y-109261904D01*
X191488095Y-109071428D01*
X191488095Y-108833333D01*
X191535714Y-108642857D01*
X191583333Y-108547619D01*
X191630952Y-108500000D01*
X191726190Y-108452380D01*
X114440476Y-124404761D02*
X114583333Y-124452380D01*
X114821428Y-124452380D01*
X114916666Y-124404761D01*
X114964285Y-124357142D01*
X115011904Y-124261904D01*
X115011904Y-124166666D01*
X114964285Y-124071428D01*
X114916666Y-124023809D01*
X114821428Y-123976190D01*
X114630952Y-123928571D01*
X114535714Y-123880952D01*
X114488095Y-123833333D01*
X114440476Y-123738095D01*
X114440476Y-123642857D01*
X114488095Y-123547619D01*
X114535714Y-123500000D01*
X114630952Y-123452380D01*
X114869047Y-123452380D01*
X115011904Y-123500000D01*
X115345238Y-123452380D02*
X115583333Y-124452380D01*
X115773809Y-123738095D01*
X115964285Y-124452380D01*
X116202380Y-123452380D01*
X117107142Y-124452380D02*
X116535714Y-124452380D01*
X116821428Y-124452380D02*
X116821428Y-123452380D01*
X116726190Y-123595238D01*
X116630952Y-123690476D01*
X116535714Y-123738095D01*
X118059523Y-124452380D02*
X117488095Y-124452380D01*
X117773809Y-124452380D02*
X117773809Y-123452380D01*
X117678571Y-123595238D01*
X117583333Y-123690476D01*
X117488095Y-123738095D01*
X132440476Y-124404761D02*
X132583333Y-124452380D01*
X132821428Y-124452380D01*
X132916666Y-124404761D01*
X132964285Y-124357142D01*
X133011904Y-124261904D01*
X133011904Y-124166666D01*
X132964285Y-124071428D01*
X132916666Y-124023809D01*
X132821428Y-123976190D01*
X132630952Y-123928571D01*
X132535714Y-123880952D01*
X132488095Y-123833333D01*
X132440476Y-123738095D01*
X132440476Y-123642857D01*
X132488095Y-123547619D01*
X132535714Y-123500000D01*
X132630952Y-123452380D01*
X132869047Y-123452380D01*
X133011904Y-123500000D01*
X133345238Y-123452380D02*
X133583333Y-124452380D01*
X133773809Y-123738095D01*
X133964285Y-124452380D01*
X134202380Y-123452380D01*
X135107142Y-124452380D02*
X134535714Y-124452380D01*
X134821428Y-124452380D02*
X134821428Y-123452380D01*
X134726190Y-123595238D01*
X134630952Y-123690476D01*
X134535714Y-123738095D01*
X135488095Y-123547619D02*
X135535714Y-123500000D01*
X135630952Y-123452380D01*
X135869047Y-123452380D01*
X135964285Y-123500000D01*
X136011904Y-123547619D01*
X136059523Y-123642857D01*
X136059523Y-123738095D01*
X136011904Y-123880952D01*
X135440476Y-124452380D01*
X136059523Y-124452380D01*
X151440476Y-124404761D02*
X151583333Y-124452380D01*
X151821428Y-124452380D01*
X151916666Y-124404761D01*
X151964285Y-124357142D01*
X152011904Y-124261904D01*
X152011904Y-124166666D01*
X151964285Y-124071428D01*
X151916666Y-124023809D01*
X151821428Y-123976190D01*
X151630952Y-123928571D01*
X151535714Y-123880952D01*
X151488095Y-123833333D01*
X151440476Y-123738095D01*
X151440476Y-123642857D01*
X151488095Y-123547619D01*
X151535714Y-123500000D01*
X151630952Y-123452380D01*
X151869047Y-123452380D01*
X152011904Y-123500000D01*
X152345238Y-123452380D02*
X152583333Y-124452380D01*
X152773809Y-123738095D01*
X152964285Y-124452380D01*
X153202380Y-123452380D01*
X154107142Y-124452380D02*
X153535714Y-124452380D01*
X153821428Y-124452380D02*
X153821428Y-123452380D01*
X153726190Y-123595238D01*
X153630952Y-123690476D01*
X153535714Y-123738095D01*
X154440476Y-123452380D02*
X155059523Y-123452380D01*
X154726190Y-123833333D01*
X154869047Y-123833333D01*
X154964285Y-123880952D01*
X155011904Y-123928571D01*
X155059523Y-124023809D01*
X155059523Y-124261904D01*
X155011904Y-124357142D01*
X154964285Y-124404761D01*
X154869047Y-124452380D01*
X154583333Y-124452380D01*
X154488095Y-124404761D01*
X154440476Y-124357142D01*
X170440476Y-124404761D02*
X170583333Y-124452380D01*
X170821428Y-124452380D01*
X170916666Y-124404761D01*
X170964285Y-124357142D01*
X171011904Y-124261904D01*
X171011904Y-124166666D01*
X170964285Y-124071428D01*
X170916666Y-124023809D01*
X170821428Y-123976190D01*
X170630952Y-123928571D01*
X170535714Y-123880952D01*
X170488095Y-123833333D01*
X170440476Y-123738095D01*
X170440476Y-123642857D01*
X170488095Y-123547619D01*
X170535714Y-123500000D01*
X170630952Y-123452380D01*
X170869047Y-123452380D01*
X171011904Y-123500000D01*
X171345238Y-123452380D02*
X171583333Y-124452380D01*
X171773809Y-123738095D01*
X171964285Y-124452380D01*
X172202380Y-123452380D01*
X173107142Y-124452380D02*
X172535714Y-124452380D01*
X172821428Y-124452380D02*
X172821428Y-123452380D01*
X172726190Y-123595238D01*
X172630952Y-123690476D01*
X172535714Y-123738095D01*
X173964285Y-123785714D02*
X173964285Y-124452380D01*
X173726190Y-123404761D02*
X173488095Y-124119047D01*
X174107142Y-124119047D01*
X188440476Y-124404761D02*
X188583333Y-124452380D01*
X188821428Y-124452380D01*
X188916666Y-124404761D01*
X188964285Y-124357142D01*
X189011904Y-124261904D01*
X189011904Y-124166666D01*
X188964285Y-124071428D01*
X188916666Y-124023809D01*
X188821428Y-123976190D01*
X188630952Y-123928571D01*
X188535714Y-123880952D01*
X188488095Y-123833333D01*
X188440476Y-123738095D01*
X188440476Y-123642857D01*
X188488095Y-123547619D01*
X188535714Y-123500000D01*
X188630952Y-123452380D01*
X188869047Y-123452380D01*
X189011904Y-123500000D01*
X189345238Y-123452380D02*
X189583333Y-124452380D01*
X189773809Y-123738095D01*
X189964285Y-124452380D01*
X190202380Y-123452380D01*
X191107142Y-124452380D02*
X190535714Y-124452380D01*
X190821428Y-124452380D02*
X190821428Y-123452380D01*
X190726190Y-123595238D01*
X190630952Y-123690476D01*
X190535714Y-123738095D01*
X192011904Y-123452380D02*
X191535714Y-123452380D01*
X191488095Y-123928571D01*
X191535714Y-123880952D01*
X191630952Y-123833333D01*
X191869047Y-123833333D01*
X191964285Y-123880952D01*
X192011904Y-123928571D01*
X192059523Y-124023809D01*
X192059523Y-124261904D01*
X192011904Y-124357142D01*
X191964285Y-124404761D01*
X191869047Y-124452380D01*
X191630952Y-124452380D01*
X191535714Y-124404761D01*
X191488095Y-124357142D01*
X114440476Y-139404761D02*
X114583333Y-139452380D01*
X114821428Y-139452380D01*
X114916666Y-139404761D01*
X114964285Y-139357142D01*
X115011904Y-139261904D01*
X115011904Y-139166666D01*
X114964285Y-139071428D01*
X114916666Y-139023809D01*
X114821428Y-138976190D01*
X114630952Y-138928571D01*
X114535714Y-138880952D01*
X114488095Y-138833333D01*
X114440476Y-138738095D01*
X114440476Y-138642857D01*
X114488095Y-138547619D01*
X114535714Y-138500000D01*
X114630952Y-138452380D01*
X114869047Y-138452380D01*
X115011904Y-138500000D01*
X115345238Y-138452380D02*
X115583333Y-139452380D01*
X115773809Y-138738095D01*
X115964285Y-139452380D01*
X116202380Y-138452380D01*
X117107142Y-139452380D02*
X116535714Y-139452380D01*
X116821428Y-139452380D02*
X116821428Y-138452380D01*
X116726190Y-138595238D01*
X116630952Y-138690476D01*
X116535714Y-138738095D01*
X117964285Y-138452380D02*
X117773809Y-138452380D01*
X117678571Y-138500000D01*
X117630952Y-138547619D01*
X117535714Y-138690476D01*
X117488095Y-138880952D01*
X117488095Y-139261904D01*
X117535714Y-139357142D01*
X117583333Y-139404761D01*
X117678571Y-139452380D01*
X117869047Y-139452380D01*
X117964285Y-139404761D01*
X118011904Y-139357142D01*
X118059523Y-139261904D01*
X118059523Y-139023809D01*
X118011904Y-138928571D01*
X117964285Y-138880952D01*
X117869047Y-138833333D01*
X117678571Y-138833333D01*
X117583333Y-138880952D01*
X117535714Y-138928571D01*
X117488095Y-139023809D01*
X132440476Y-139404761D02*
X132583333Y-139452380D01*
X132821428Y-139452380D01*
X132916666Y-139404761D01*
X132964285Y-139357142D01*
X133011904Y-139261904D01*
X133011904Y-139166666D01*
X132964285Y-139071428D01*
X132916666Y-139023809D01*
X132821428Y-138976190D01*
X132630952Y-138928571D01*
X132535714Y-138880952D01*
X132488095Y-138833333D01*
X132440476Y-138738095D01*
X132440476Y-138642857D01*
X132488095Y-138547619D01*
X132535714Y-138500000D01*
X132630952Y-138452380D01*
X132869047Y-138452380D01*
X133011904Y-138500000D01*
X133345238Y-138452380D02*
X133583333Y-139452380D01*
X133773809Y-138738095D01*
X133964285Y-139452380D01*
X134202380Y-138452380D01*
X135107142Y-139452380D02*
X134535714Y-139452380D01*
X134821428Y-139452380D02*
X134821428Y-138452380D01*
X134726190Y-138595238D01*
X134630952Y-138690476D01*
X134535714Y-138738095D01*
X135440476Y-138452380D02*
X136107142Y-138452380D01*
X135678571Y-139452380D01*
X151440476Y-139404761D02*
X151583333Y-139452380D01*
X151821428Y-139452380D01*
X151916666Y-139404761D01*
X151964285Y-139357142D01*
X152011904Y-139261904D01*
X152011904Y-139166666D01*
X151964285Y-139071428D01*
X151916666Y-139023809D01*
X151821428Y-138976190D01*
X151630952Y-138928571D01*
X151535714Y-138880952D01*
X151488095Y-138833333D01*
X151440476Y-138738095D01*
X151440476Y-138642857D01*
X151488095Y-138547619D01*
X151535714Y-138500000D01*
X151630952Y-138452380D01*
X151869047Y-138452380D01*
X152011904Y-138500000D01*
X152345238Y-138452380D02*
X152583333Y-139452380D01*
X152773809Y-138738095D01*
X152964285Y-139452380D01*
X153202380Y-138452380D01*
X154107142Y-139452380D02*
X153535714Y-139452380D01*
X153821428Y-139452380D02*
X153821428Y-138452380D01*
X153726190Y-138595238D01*
X153630952Y-138690476D01*
X153535714Y-138738095D01*
X154678571Y-138880952D02*
X154583333Y-138833333D01*
X154535714Y-138785714D01*
X154488095Y-138690476D01*
X154488095Y-138642857D01*
X154535714Y-138547619D01*
X154583333Y-138500000D01*
X154678571Y-138452380D01*
X154869047Y-138452380D01*
X154964285Y-138500000D01*
X155011904Y-138547619D01*
X155059523Y-138642857D01*
X155059523Y-138690476D01*
X155011904Y-138785714D01*
X154964285Y-138833333D01*
X154869047Y-138880952D01*
X154678571Y-138880952D01*
X154583333Y-138928571D01*
X154535714Y-138976190D01*
X154488095Y-139071428D01*
X154488095Y-139261904D01*
X154535714Y-139357142D01*
X154583333Y-139404761D01*
X154678571Y-139452380D01*
X154869047Y-139452380D01*
X154964285Y-139404761D01*
X155011904Y-139357142D01*
X155059523Y-139261904D01*
X155059523Y-139071428D01*
X155011904Y-138976190D01*
X154964285Y-138928571D01*
X154869047Y-138880952D01*
X170440476Y-139404761D02*
X170583333Y-139452380D01*
X170821428Y-139452380D01*
X170916666Y-139404761D01*
X170964285Y-139357142D01*
X171011904Y-139261904D01*
X171011904Y-139166666D01*
X170964285Y-139071428D01*
X170916666Y-139023809D01*
X170821428Y-138976190D01*
X170630952Y-138928571D01*
X170535714Y-138880952D01*
X170488095Y-138833333D01*
X170440476Y-138738095D01*
X170440476Y-138642857D01*
X170488095Y-138547619D01*
X170535714Y-138500000D01*
X170630952Y-138452380D01*
X170869047Y-138452380D01*
X171011904Y-138500000D01*
X171345238Y-138452380D02*
X171583333Y-139452380D01*
X171773809Y-138738095D01*
X171964285Y-139452380D01*
X172202380Y-138452380D01*
X173107142Y-139452380D02*
X172535714Y-139452380D01*
X172821428Y-139452380D02*
X172821428Y-138452380D01*
X172726190Y-138595238D01*
X172630952Y-138690476D01*
X172535714Y-138738095D01*
X173583333Y-139452380D02*
X173773809Y-139452380D01*
X173869047Y-139404761D01*
X173916666Y-139357142D01*
X174011904Y-139214285D01*
X174059523Y-139023809D01*
X174059523Y-138642857D01*
X174011904Y-138547619D01*
X173964285Y-138500000D01*
X173869047Y-138452380D01*
X173678571Y-138452380D01*
X173583333Y-138500000D01*
X173535714Y-138547619D01*
X173488095Y-138642857D01*
X173488095Y-138880952D01*
X173535714Y-138976190D01*
X173583333Y-139023809D01*
X173678571Y-139071428D01*
X173869047Y-139071428D01*
X173964285Y-139023809D01*
X174011904Y-138976190D01*
X174059523Y-138880952D01*
X188440476Y-139404761D02*
X188583333Y-139452380D01*
X188821428Y-139452380D01*
X188916666Y-139404761D01*
X188964285Y-139357142D01*
X189011904Y-139261904D01*
X189011904Y-139166666D01*
X188964285Y-139071428D01*
X188916666Y-139023809D01*
X188821428Y-138976190D01*
X188630952Y-138928571D01*
X188535714Y-138880952D01*
X188488095Y-138833333D01*
X188440476Y-138738095D01*
X188440476Y-138642857D01*
X188488095Y-138547619D01*
X188535714Y-138500000D01*
X188630952Y-138452380D01*
X188869047Y-138452380D01*
X189011904Y-138500000D01*
X189345238Y-138452380D02*
X189583333Y-139452380D01*
X189773809Y-138738095D01*
X189964285Y-139452380D01*
X190202380Y-138452380D01*
X190535714Y-138547619D02*
X190583333Y-138500000D01*
X190678571Y-138452380D01*
X190916666Y-138452380D01*
X191011904Y-138500000D01*
X191059523Y-138547619D01*
X191107142Y-138642857D01*
X191107142Y-138738095D01*
X191059523Y-138880952D01*
X190488095Y-139452380D01*
X191107142Y-139452380D01*
X191726190Y-138452380D02*
X191821428Y-138452380D01*
X191916666Y-138500000D01*
X191964285Y-138547619D01*
X192011904Y-138642857D01*
X192059523Y-138833333D01*
X192059523Y-139071428D01*
X192011904Y-139261904D01*
X191964285Y-139357142D01*
X191916666Y-139404761D01*
X191821428Y-139452380D01*
X191726190Y-139452380D01*
X191630952Y-139404761D01*
X191583333Y-139357142D01*
X191535714Y-139261904D01*
X191488095Y-139071428D01*
X191488095Y-138833333D01*
X191535714Y-138642857D01*
X191583333Y-138547619D01*
X191630952Y-138500000D01*
X191726190Y-138452380D01*
X203652380Y-72666666D02*
X203176190Y-73000000D01*
X203652380Y-73238095D02*
X202652380Y-73238095D01*
X202652380Y-72857142D01*
X202700000Y-72761904D01*
X202747619Y-72714285D01*
X202842857Y-72666666D01*
X202985714Y-72666666D01*
X203080952Y-72714285D01*
X203128571Y-72761904D01*
X203176190Y-72857142D01*
X203176190Y-73238095D01*
X203652380Y-71714285D02*
X203652380Y-72285714D01*
X203652380Y-72000000D02*
X202652380Y-72000000D01*
X202795238Y-72095238D01*
X202890476Y-72190476D01*
X202938095Y-72285714D01*
X200052380Y-72866666D02*
X199576190Y-73200000D01*
X200052380Y-73438095D02*
X199052380Y-73438095D01*
X199052380Y-73057142D01*
X199100000Y-72961904D01*
X199147619Y-72914285D01*
X199242857Y-72866666D01*
X199385714Y-72866666D01*
X199480952Y-72914285D01*
X199528571Y-72961904D01*
X199576190Y-73057142D01*
X199576190Y-73438095D01*
X199147619Y-72485714D02*
X199100000Y-72438095D01*
X199052380Y-72342857D01*
X199052380Y-72104761D01*
X199100000Y-72009523D01*
X199147619Y-71961904D01*
X199242857Y-71914285D01*
X199338095Y-71914285D01*
X199480952Y-71961904D01*
X200052380Y-72533333D01*
X200052380Y-71914285D01*
X200152380Y-62766666D02*
X199676190Y-63100000D01*
X200152380Y-63338095D02*
X199152380Y-63338095D01*
X199152380Y-62957142D01*
X199200000Y-62861904D01*
X199247619Y-62814285D01*
X199342857Y-62766666D01*
X199485714Y-62766666D01*
X199580952Y-62814285D01*
X199628571Y-62861904D01*
X199676190Y-62957142D01*
X199676190Y-63338095D01*
X199152380Y-62433333D02*
X199152380Y-61814285D01*
X199533333Y-62147619D01*
X199533333Y-62004761D01*
X199580952Y-61909523D01*
X199628571Y-61861904D01*
X199723809Y-61814285D01*
X199961904Y-61814285D01*
X200057142Y-61861904D01*
X200104761Y-61909523D01*
X200152380Y-62004761D01*
X200152380Y-62290476D01*
X200104761Y-62385714D01*
X200057142Y-62433333D01*
X203652380Y-62766666D02*
X203176190Y-63100000D01*
X203652380Y-63338095D02*
X202652380Y-63338095D01*
X202652380Y-62957142D01*
X202700000Y-62861904D01*
X202747619Y-62814285D01*
X202842857Y-62766666D01*
X202985714Y-62766666D01*
X203080952Y-62814285D01*
X203128571Y-62861904D01*
X203176190Y-62957142D01*
X203176190Y-63338095D01*
X202985714Y-61909523D02*
X203652380Y-61909523D01*
X202604761Y-62147619D02*
X203319047Y-62385714D01*
X203319047Y-61766666D01*
M02*
